# File produced by Open Asset Import Library (http://www.assimp.sf.net)
# (assimp v4.1.3154142419)

mtllib left_finger_col.mtl

# 66 vertex positions
v  0.01038920506834984 0.06668029725551605 0.05840315669775009
v  0.0103779174387455 0.04293518140912056 0.05842266231775284
v  -0.01036606356501579 0.0429246611893177 0.05840373784303665
v  -0.01039053127169609 0.06670328974723816 0.05843409150838852
v  0.0022704117000103 0.04036595299839973 0.09452063590288162
v  0.008674893528223038 0.04039346054196358 0.1085895523428917
v  0.01047961041331291 0.05807836726307869 0.0775943323969841
v  0.008973222225904465 0.05451296642422676 0.1079517677426338
v  0.01040058210492134 0.06565438210964203 0.0773070827126503
v  0.01035015657544136 0.06666339933872223 0.06007007509469986
v  -0.004838179796934128 0.06669776141643524 0.06210910528898239
v  -0.00491328164935112 0.06671491265296936 0.06004909425973892
v  0.00490063801407814 0.06674538552761078 0.06003128737211227
v  0.01040899381041527 0.0520167239010334 0.07598910480737686
v  0.01049771532416344 0.05105381086468697 0.06206922978162766
v  0.008762393146753311 0.04041119292378426 0.09453747421503067
v  -0.002274069935083389 0.04036365821957588 0.09452094882726669
v  -0.01038888469338417 0.06562052667140961 0.07745767384767532
v  0.01046476140618324 0.04847206547856331 0.06001079827547073
v  0.004838582128286362 0.06665198504924774 0.06215479224920273
v  0.008785504847764969 0.04974891617894173 0.1088425740599632
v  0.008197296410799026 0.05451487377285957 0.1101228967308998
v  0.007075447589159012 0.0403815396130085 0.1110410019755363
v  0.006869044154882431 0.0497528500854969 0.1113746836781502
v  -0.005330372601747513 0.05470134690403938 0.1120801940560341
v  -0.007802177220582962 0.05463882163167 0.1105620041489601
v  0.01034994050860405 0.04296394065022469 0.06007001549005508
v  0.008757065981626511 0.04037075117230415 0.1055436655879021
v  -0.008771602064371109 0.04042815044522285 0.09453638643026352
v  -0.008945081382989883 0.05450980737805367 0.1082305088639259
v  -0.01034970209002495 0.06666338443756104 0.06007050722837448
v  -0.01046396419405937 0.04847245290875435 0.06001140922307968
v  0.01049830392003059 0.05763298645615578 0.06300059705972672
v  0.01050129905343056 0.05743565037846565 0.07598466426134109
v  0.004842821508646011 0.04038359597325325 0.1119889542460442
v  0.002268720418214798 0.04036404564976692 0.1120175197720528
v  0.00853782519698143 0.05481420829892159 0.1088041737675667
v  0.008759330958127975 0.0403716154396534 0.1009993478655815
v  -0.01046447828412056 0.06115436926484108 0.06001103669404984
v  -0.01037906482815742 0.05319227650761604 0.07712294906377792
v  -0.0103750117123127 0.05197753384709358 0.0760432705283165
v  -0.008709084242582321 0.0403897650539875 0.1082116886973381
v  0.01045864447951317 0.06120261922478676 0.06001517921686172
v  0.004800152033567429 0.05473159626126289 0.1121015623211861
v  -0.005691949278116226 0.04041169956326485 0.1118755415081978
v  -0.00781843438744545 0.04036073759198189 0.1101893112063408
v  -0.002268288284540176 0.0403638668358326 0.1120182052254677
v  -0.002262357622385025 0.04031671956181526 0.1055339202284813
v  -0.008757729083299637 0.04037143662571907 0.1055435016751289
v  -0.00708407536149025 0.04990502074360847 0.1110919490456581
v  -0.005339581519365311 0.04975559189915657 0.1120911315083504
v  0.002248127013444901 0.04032378271222115 0.1010238751769066
v  -0.0022437684237957 0.04032515361905098 0.10102728754282
v  -0.008758742362260818 0.0403699167072773 0.100995309650898
v  -0.01034951582551003 0.0429636724293232 0.06007016450166702
v  -0.01050053164362907 0.05743597820401192 0.07598438113927841
v  0.005531858652830124 0.05011703446507454 0.1121278777718544
v  -0.008395034819841385 0.05011313036084175 0.109731413424015
v  -0.008893359452486038 0.04974215105175972 0.1081714555621147
v  -0.007860813289880753 0.04975633695721626 0.1104627922177315
v  0.00226326659321785 0.04031674936413765 0.1055337563157082
v  -0.01049773022532463 0.05106820538640022 0.06207852810621262
v  -0.01047942414879799 0.05807842686772346 0.07759387046098709
v  0.006546270102262497 0.05469085648655891 0.1115159764885902
v  0.004729781299829483 0.04975177720189095 0.1121721789240837
v  8.605420589447021e-07 0.04195894673466682 0.1120758727192879

# 0 UV coordinates

# 128 vertex normals
vn 0.0009127035737037659 -0.0008218912407755852 -0.9999991655349731
vn -0.001487287343479693 0.001274977345019579 -0.9999980926513672
vn 0.0005705212824977934 -0.9974856376647949 -0.0708666667342186
vn 0.9986992478370667 -0.01896343380212784 0.04732997342944145
vn 0.9986221194267273 0.01235085166990757 0.05100392550230026
vn 0.8779880404472351 0.4780074059963226 0.02541303262114525
vn -0.004626467823982239 0.9999532103538513 0.008494077250361443
vn 0.01496751606464386 0.9998329281806946 0.01048614829778671
vn -0.003089630743488669 0.9999595880508423 0.008438101038336754
vn 0.001051554572768509 0.9993365406990051 -0.03640589863061905
vn -0.003099022665992379 0.9999897480010986 0.003313513705506921
vn 0.9987220764160156 -0.02348570711910725 0.04475102573633194
vn 0.9998056292533875 -0.01818020269274712 0.007630113046616316
vn 0.007131606340408325 -0.9975635409355164 -0.06939860433340073
vn 0.0004988125874660909 -0.9974873661994934 -0.07084169983863831
vn -0.001120315282605588 0.9975737333297729 0.06960926204919815
vn 0.9986050128936768 -0.0005180764710530639 -0.05280044302344322
vn 0.9998335838317871 -0.01732269488275051 0.005720061250030994
vn 0.004418234340846539 0.9979349970817566 0.06408065557479858
vn 0.004517818801105022 0.9990180730819702 0.0440729483962059
vn 0.0200102049857378 0.9980945587158203 0.0583677627146244
vn 0.01471244171261787 0.9989070296287537 0.04436597973108292
vn 0.9916854500770569 -0.01518094167113304 0.1277873963117599
vn 0.9413636326789856 0.02581030875444412 0.3364052176475525
vn 0.7041468024253845 -0.00977146252989769 0.7099871635437012
vn 0.8723424673080444 -0.02352091297507286 0.4883291721343994
vn 0.8371721506118774 -0.03097914531826973 0.5460615158081055
vn -0.2214118093252182 0.9202800393104553 0.3225854337215424
vn 0.9991409778594971 -0.03750753030180931 0.01762317679822445
vn 0.9976285099983215 -0.06135588884353638 0.03119074553251266
vn 0.9716770648956299 -0.2354122251272202 0.02061174251139164
vn 0.9919163584709167 -0.1238372921943665 0.02768339030444622
vn 0.01969041116535664 -0.9997742772102356 0.007985278964042664
vn -0.0100645525380969 -0.9976015090942383 -0.06848308444023132
vn -0.6566235423088074 0.6990313529968262 0.2831971645355225
vn -0.0153926657512784 0.9995749592781067 0.02475949004292488
vn -0.7940335273742676 0.6068878769874573 0.03461089357733727
vn -0.02833624556660652 0.997809112071991 0.05978333204984665
vn -0.998344898223877 -0.0009538718149997294 -0.05750348791480064
vn 1 -5.668611629516818e-05 -0.0002315391320735216
vn 0.9996500015258789 -0.01701129600405693 0.02026163041591644
vn 0.9998264908790588 -0.01702471822500229 0.007550315465778112
vn 0.9998998641967773 0.01077798847109079 0.009169142693281174
vn 0.007821664214134216 -0.9997574090957642 0.0205903984606266
vn 0.8168473243713379 0.5288752913475037 0.2303289175033569
vn 0.8714419007301331 0.379212498664856 0.311105877161026
vn 0.4821709394454956 0.819221556186676 0.3104628026485443
vn 0.8214917182922363 -0.5702120065689087 -0.003103123512119055
vn 0.8479688167572021 -0.5300461053848267 0.0003218366182409227
vn -0.9999075531959534 0.01356921624392271 0.0008588642231188715
vn -0.9988954663276672 -4.187274680589326e-05 -0.0469881147146225
vn -0.9985697865486145 -0.03734030202031136 0.03826281055808067
vn 0.9999388456344604 0.01105718594044447 -6.261288217501715e-05
vn 0.9999333024024963 0.00153172540012747 -0.0114520313218236
vn 0.9999192953109741 0.01270152442157269 8.752501889830455e-05
vn 0.9999253153800964 0.01221959013491869 0.0002116178366122767
vn 0.9991441965103149 0.0004943135427311063 -0.04135940223932266
vn 0.9998617768287659 0.0004861436609644443 -0.01661675982177258
vn 0.0006165209342725575 0.9540640711784363 0.2996019721031189
vn -0.003482638625428081 0.9535433650016785 0.3012354969978333
vn -0.01605281606316566 -0.9985989332199097 0.05042410269379616
vn -0.001831538509577513 -0.9999719262123108 0.007269125897437334
vn -0.0497991181910038 -0.9987290501594543 0.007768422365188599
vn -0.5235931277275085 0.01593311131000519 0.8518194556236267
vn -0.620725154876709 -0.02634653076529503 0.7835853695869446
vn -0.04192359372973442 -0.02146623842418194 0.998890221118927
vn -0.4968264997005463 0.002844301983714104 0.8678452372550964
vn -0.4970937073230743 -0.001274281181395054 0.8676959276199341
vn 0.006985025946050882 -0.9999547600746155 -0.006460275966674089
vn 0.007322826888412237 -0.9999544620513916 -0.006121019832789898
vn 0.0005045028519816697 -0.9999788999557495 -0.006482639349997044
vn -0.0003096849541179836 -0.999982476234436 -0.005916467402130365
vn -0.0003066177596338093 -0.9999982118606567 -0.001872738124802709
vn -0.006841631606221199 -0.9999592304229736 -0.005885909777134657
vn -0.009946128353476524 -0.9999100565910339 -0.008995398879051208
vn -0.006861302070319653 -0.9999746680259705 -0.001899730996228755
vn -0.818693995475769 -0.5742189884185791 -0.003547148313373327
vn -0.8491518497467041 -0.5281486511230469 0.0003656772605609149
vn -0.00806741788983345 -0.9999673962593079 -0.0001732607051962987
vn -0.01305665168911219 -0.9999147653579712 0.0003370611811988056
vn -0.9978597164154053 -0.05761760100722313 0.03092171065509319
vn -0.9545373320579529 -0.2976374924182892 0.01644641533493996
vn -0.9670260548591614 -0.2539394795894623 0.01937464624643326
vn -0.9995026588439941 -0.02274846658110619 0.02184208855032921
vn -0.9997530579566956 -0.0202765017747879 0.009089762344956398
vn -0.9999086856842041 0.01348127890378237 0.0008813806343823671
vn -0.9997053742408752 -0.02191202342510223 0.01044011022895575
vn -0.9996745586395264 -0.02286607027053833 0.01130800694227219
vn 0.4864466786384583 -0.02038748934864998 0.8734723329544067
vn 0.3904647827148438 -0.04076819866895676 0.9197147488594055
vn -0.8981087207794189 0.03722969070076942 0.438194751739502
vn -0.9515028595924377 -0.01412885915488005 0.3073152303695679
vn -0.9512242078781128 -0.01741746999323368 0.3080083131790161
vn -0.9114404320716858 -0.03463887050747871 0.4099714457988739
vn -0.6284447908401489 -0.008257790468633175 0.7778103351593018
vn -0.6262638568878174 -0.02550503239035606 0.7791938185691833
vn -0.8080455660820007 -0.002266606781631708 0.5891156196594238
vn -0.8121177554130554 -0.02063638903200626 0.5831285715103149
vn 0.008315899409353733 -0.9999653697013855 -0.000186035453225486
vn 0.007340044714510441 -0.9999718070030212 -0.001584138255566359
vn 6.528724952659104e-06 -0.9999987483024597 -0.001559561816975474
vn 0.008308659307658672 -0.9999552965164185 0.004503990989178419
vn 0.005120337009429932 -0.9999603033065796 0.0072899772785604
vn 4.051328141940758e-05 -0.9999734163284302 0.007294344715774059
vn 6.848406428616727e-06 -0.9999735951423645 0.007270819507539272
vn -0.9998674988746643 -4.101014565094374e-05 -0.01628116518259048
vn -0.9997545480728149 -0.02021700516343117 0.009056371636688709
vn -0.9999943971633911 0.002976118354126811 -0.00156428012996912
vn -0.999497652053833 -0.02266446687281132 0.02215463668107986
vn -0.9987490177154541 -0.02470403164625168 0.04347611963748932
vn -0.9987285733222961 -0.01947848685085773 0.04649386554956436
vn -0.9987486004829407 -0.01143797859549522 0.04868696257472038
vn -0.9985886216163635 0.01291787810623646 0.05151597410440445
vn -0.9998920559883118 0.01215244177728891 0.008262184448540211
vn 0.3186353743076324 0.05592036247253418 0.9462264180183411
vn 0.3641950786113739 0.8741816878318787 0.3211982548236847
vn 0.1278192400932312 0.9402021765708923 0.3157246112823486
vn 0.6460128426551819 0.02039328403770924 0.7630540728569031
vn 0.4922592341899872 0.007271084934473038 0.8704182505607605
vn 0.063648521900177 -0.01874708198010921 0.9977962970733643
vn -0.00804778840392828 0.002226390643045306 0.9999651312828064
vn -0.002151506021618843 0.01420949306339025 0.9998966455459595
vn 0.04902775958180428 0.01346939243376255 0.998706579208374
vn 0.01125053036957979 -0.02057949639856815 0.9997249245643616
vn 0.01163044665008783 -0.01941284351050854 0.9997438788414001
vn 0.0001524141262052581 -0.03634629398584366 0.9993392825126648
vn -0.01622200943529606 -0.01306820753961802 0.9997830390930176
vn -0.008051256649196148 -0.007471821736544371 0.9999396800994873

# Mesh '' with 128 faces
usemtl $Material_0
f  1//1 2//1 3//1
f  4//2 1//2 3//2
f  2//3 5//3 3//3
f  6//4 7//4 8//4
f  7//5 9//5 8//5
f  9//6 1//6 10//6
f  11//7 12//7 4//7
f  1//8 13//8 10//8
f  13//9 12//9 11//9
f  13//10 1//10 4//10
f  12//11 13//11 4//11
f  6//12 14//12 7//12
f  15//13 14//13 2//13
f  16//14 5//14 2//14
f  5//15 17//15 3//15
f  18//16 9//16 11//16
f  1//17 19//17 2//17
f  19//18 15//18 2//18
f  9//19 20//19 11//19
f  20//20 13//20 11//20
f  20//21 9//21 10//21
f  13//22 20//22 10//22
f  21//23 6//23 8//23
f  22//24 21//24 8//24
f  23//25 22//25 24//25
f  21//26 22//26 6//26
f  22//27 23//27 6//27
f  25//28 18//28 26//28
f  14//29 27//29 2//29
f  27//30 14//30 6//30
f  27//31 28//31 2//31
f  28//32 27//32 6//32
f  23//33 28//33 6//33
f  17//34 29//34 3//34
f  18//35 30//35 26//35
f  31//36 11//36 4//36
f  18//37 31//37 4//37
f  31//38 18//38 11//38
f  32//39 4//39 3//39
f  33//40 34//40 15//40
f  14//41 34//41 7//41
f  34//42 14//42 15//42
f  34//43 9//43 7//43
f  23//44 35//44 36//44
f  9//45 37//45 8//45
f  37//46 22//46 8//46
f  22//47 37//47 9//47
f  38//48 16//48 2//48
f  28//49 38//49 2//49
f  39//50 18//50 4//50
f  32//51 39//51 4//51
f  40//52 41//52 42//52
f  43//53 34//53 33//53
f  43//54 33//54 15//54
f  9//55 43//55 1//55
f  34//56 43//56 9//56
f  43//57 19//57 1//57
f  19//58 43//58 15//58
f  18//59 44//59 9//59
f  25//60 44//60 18//60
f  45//61 46//61 47//61
f  47//62 46//62 48//62
f  49//63 46//63 42//63
f  50//64 25//64 26//64
f  50//65 46//65 45//65
f  51//66 45//66 47//66
f  50//67 51//67 25//67
f  51//68 50//68 45//68
f  16//69 52//69 5//69
f  38//70 52//70 16//70
f  52//71 17//71 5//71
f  17//72 52//72 53//72
f  52//73 48//73 53//73
f  54//74 17//74 53//74
f  54//75 29//75 17//75
f  48//76 54//76 53//76
f  29//77 54//77 3//77
f  54//78 49//78 3//78
f  46//79 54//79 48//79
f  54//80 46//80 49//80
f  41//81 55//81 42//81
f  49//82 55//82 3//82
f  55//83 49//83 42//83
f  56//84 41//84 40//84
f  56//85 32//85 3//85
f  39//86 56//86 18//86
f  55//87 56//87 3//87
f  56//88 55//88 41//88
f  57//89 23//89 24//89
f  57//90 35//90 23//90
f  30//91 58//91 26//91
f  59//92 58//92 30//92
f  58//93 59//93 42//93
f  46//94 58//94 42//94
f  60//95 50//95 26//95
f  50//96 60//96 46//96
f  58//97 60//97 26//97
f  60//98 58//98 46//98
f  61//99 38//99 28//99
f  61//100 52//100 38//100
f  52//101 61//101 48//101
f  61//102 28//102 23//102
f  61//103 23//103 36//103
f  47//104 61//104 36//104
f  61//105 47//105 48//105
f  62//106 39//106 32//106
f  56//107 62//107 32//107
f  62//108 56//108 39//108
f  63//109 56//109 40//109
f  63//110 40//110 42//110
f  59//111 63//111 42//111
f  63//112 59//112 30//112
f  63//113 30//113 18//113
f  56//114 63//114 18//114
f  57//115 64//115 44//115
f  64//116 22//116 9//116
f  44//117 64//117 9//117
f  22//118 64//118 24//118
f  64//119 57//119 24//119
f  57//120 65//120 35//120
f  51//121 65//121 25//121
f  65//122 44//122 25//122
f  65//123 57//123 44//123
f  35//124 66//124 36//124
f  65//125 66//125 35//125
f  66//126 47//126 36//126
f  66//127 51//127 47//127
f  66//128 65//128 51//128

